<svg width="24" height="24" viewBox="0 0 24 24" fill="none" xmlns="http://www.w3.org/2000/svg">
<path d="M14 9V4H5V20H11.0563C11.3838 20.4171 11.7803 20.7847 12.236 21.0848L13.626 22H3.9934C3.44495 22 3 21.556 3 21.0082V2.9918C3 2.45531 3.4487 2 4.00221 2H14.9968L21 8V9H14Z" fill="currentColor"/>
<path d="M18 12C15.7909 12 14 13.7909 14 16C14 18.2091 15.7909 20 18 20C20.2091 20 22 18.2091 22 16C22 13.7909 20.2091 12 18 12ZM12 16C12 12.6863 14.6863 10 18 10C21.3137 10 24 12.6863 24 16C24 19.3137 21.3137 22 18 22C14.6863 22 12 19.3137 12 16ZM17 13V16.4142L19.2929 18.7071L20.7071 17.2929L19 15.5858V13H17Z" fill="currentColor"/>
</svg>
