<svg width="24" height="24" viewBox="0 0 24 24" fill="none" xmlns="http://www.w3.org/2000/svg">
<path d="M12.6727 1.61162L20.7999 9H17.8267L12 3.70302L6 9.15757V19.0001H11V21.0001H5C4.44772 21.0001 4 20.5524 4 20.0001V11.0001H1L11.3273 1.61162C11.7087 1.26488 12.2913 1.26488 12.6727 1.61162Z" fill="currentColor"/>
<path d="M18 12C15.7909 12 14 13.7909 14 16C14 18.2091 15.7909 20 18 20C20.2091 20 22 18.2091 22 16C22 13.7909 20.2091 12 18 12ZM12 16C12 12.6863 14.6863 10 18 10C21.3137 10 24 12.6863 24 16C24 19.3137 21.3137 22 18 22C14.6863 22 12 19.3137 12 16ZM17 13V16.4142L19.2929 18.7071L20.7071 17.2929L19 15.5858V13H17Z" fill="currentColor"/>
</svg>
