<svg width="24" height="25" viewBox="0 0 24 25" fill="none" xmlns="http://www.w3.org/2000/svg">
<path d="M11.083 3.68V21.32C11.083 21.96 10.493 22.44 9.87301 22.3C5.40301 21.3 2.08301 17.29 2.08301 12.5C2.08301 7.71 5.40301 3.7 9.87301 2.7C10.493 2.56 11.083 3.04 11.083 3.68ZM13.113 3.68V10.49C13.113 11.04 13.563 11.49 14.113 11.49H20.903C21.543 11.49 22.023 10.9 21.883 10.27C21.033 6.51 18.083 3.55 14.333 2.7C13.703 2.56 13.113 3.04 13.113 3.68ZM13.113 14.51V21.32C13.113 21.96 13.703 22.44 14.333 22.3C18.093 21.45 21.043 18.48 21.893 14.72C22.033 14.1 21.543 13.5 20.913 13.5H14.123C13.563 13.51 13.113 13.96 13.113 14.51Z" fill="currentColor" fill-opacity="0.95"/>
</svg>
